<svg width="44" height="44" viewBox="0 0 44 44" fill="none" xmlns="http://www.w3.org/2000/svg">
<g filter="url(#filter0_d_56_4699)">
<rect x="10" y="6" width="24" height="24" rx="4" fill="#6DBD44" shape-rendering="crispEdges"/>
<path d="M22 11.5C20.7144 11.5 19.4577 11.8812 18.3888 12.5954C17.3199 13.3097 16.4868 14.3248 15.9948 15.5126C15.5028 16.7003 15.3741 18.0072 15.6249 19.2681C15.8757 20.529 16.4948 21.6872 17.4038 22.5962C18.3129 23.5052 19.471 24.1243 20.7319 24.3751C21.9928 24.6259 23.2997 24.4972 24.4874 24.0052C25.6752 23.5132 26.6903 22.6801 27.4046 21.6112C28.1188 20.5423 28.5 19.2856 28.5 18C28.4982 16.2767 27.8128 14.6244 26.5942 13.4058C25.3756 12.1872 23.7234 11.5018 22 11.5ZM22.75 21H22.5V21.5C22.5 21.6326 22.4473 21.7598 22.3536 21.8536C22.2598 21.9473 22.1326 22 22 22C21.8674 22 21.7402 21.9473 21.6464 21.8536C21.5527 21.7598 21.5 21.6326 21.5 21.5V21H20.5C20.3674 21 20.2402 20.9473 20.1464 20.8536C20.0527 20.7598 20 20.6326 20 20.5C20 20.3674 20.0527 20.2402 20.1464 20.1464C20.2402 20.0527 20.3674 20 20.5 20H22.75C22.9489 20 23.1397 19.921 23.2803 19.7803C23.421 19.6397 23.5 19.4489 23.5 19.25C23.5 19.0511 23.421 18.8603 23.2803 18.7197C23.1397 18.579 22.9489 18.5 22.75 18.5H21.25C20.7859 18.5 20.3408 18.3156 20.0126 17.9874C19.6844 17.6592 19.5 17.2141 19.5 16.75C19.5 16.2859 19.6844 15.8408 20.0126 15.5126C20.3408 15.1844 20.7859 15 21.25 15H21.5V14.5C21.5 14.3674 21.5527 14.2402 21.6464 14.1464C21.7402 14.0527 21.8674 14 22 14C22.1326 14 22.2598 14.0527 22.3536 14.1464C22.4473 14.2402 22.5 14.3674 22.5 14.5V15H23.5C23.6326 15 23.7598 15.0527 23.8536 15.1464C23.9473 15.2402 24 15.3674 24 15.5C24 15.6326 23.9473 15.7598 23.8536 15.8536C23.7598 15.9473 23.6326 16 23.5 16H21.25C21.0511 16 20.8603 16.079 20.7197 16.2197C20.579 16.3603 20.5 16.5511 20.5 16.75C20.5 16.9489 20.579 17.1397 20.7197 17.2803C20.8603 17.421 21.0511 17.5 21.25 17.5H22.75C23.2141 17.5 23.6593 17.6844 23.9874 18.0126C24.3156 18.3408 24.5 18.7859 24.5 19.25C24.5 19.7141 24.3156 20.1592 23.9874 20.4874C23.6593 20.8156 23.2141 21 22.75 21Z" fill="white"/>
</g>
<defs>
<filter id="filter0_d_56_4699" x="0" y="0" width="44" height="44" filterUnits="userSpaceOnUse" color-interpolation-filters="sRGB">
<feFlood flood-opacity="0" result="BackgroundImageFix"/>
<feColorMatrix in="SourceAlpha" type="matrix" values="0 0 0 0 0 0 0 0 0 0 0 0 0 0 0 0 0 0 127 0" result="hardAlpha"/>
<feOffset dy="4"/>
<feGaussianBlur stdDeviation="5"/>
<feComposite in2="hardAlpha" operator="out"/>
<feColorMatrix type="matrix" values="0 0 0 0 0 0 0 0 0 0 0 0 0 0 0 0 0 0 0.1 0"/>
<feBlend mode="normal" in2="BackgroundImageFix" result="effect1_dropShadow_56_4699"/>
<feBlend mode="normal" in="SourceGraphic" in2="effect1_dropShadow_56_4699" result="shape"/>
</filter>
</defs>
</svg>
