<svg width="44" height="44" viewBox="0 0 44 44" fill="none" xmlns="http://www.w3.org/2000/svg">
<g filter="url(#filter0_d_3_8406)">
<rect x="10" y="6" width="24" height="24" rx="4" fill="#1E90FF" shape-rendering="crispEdges"/>
<path d="M22 11.5C20.7144 11.5 19.4577 11.8812 18.3888 12.5954C17.3199 13.3097 16.4868 14.3248 15.9948 15.5126C15.5028 16.7003 15.3741 18.0072 15.6249 19.2681C15.8757 20.529 16.4948 21.6872 17.4038 22.5962C18.3129 23.5052 19.471 24.1243 20.7319 24.3751C21.9928 24.6259 23.2997 24.4972 24.4874 24.0052C25.6752 23.5132 26.6903 22.6801 27.4046 21.6112C28.1188 20.5423 28.5 19.2856 28.5 18C28.4982 16.2767 27.8128 14.6244 26.5942 13.4058C25.3756 12.1872 23.7234 11.5018 22 11.5ZM21.75 14.5C21.8983 14.5 22.0433 14.544 22.1667 14.6264C22.29 14.7088 22.3861 14.8259 22.4429 14.963C22.4997 15.1 22.5145 15.2508 22.4856 15.3963C22.4567 15.5418 22.3852 15.6754 22.2803 15.7803C22.1754 15.8852 22.0418 15.9567 21.8963 15.9856C21.7508 16.0145 21.6 15.9997 21.463 15.9429C21.3259 15.8861 21.2088 15.79 21.1264 15.6667C21.044 15.5433 21 15.3983 21 15.25C21 15.0511 21.079 14.8603 21.2197 14.7197C21.3603 14.579 21.5511 14.5 21.75 14.5ZM22.5 21.5C22.2348 21.5 21.9804 21.3946 21.7929 21.2071C21.6054 21.0196 21.5 20.7652 21.5 20.5V18C21.3674 18 21.2402 17.9473 21.1464 17.8536C21.0527 17.7598 21 17.6326 21 17.5C21 17.3674 21.0527 17.2402 21.1464 17.1464C21.2402 17.0527 21.3674 17 21.5 17C21.7652 17 22.0196 17.1054 22.2071 17.2929C22.3946 17.4804 22.5 17.7348 22.5 18V20.5C22.6326 20.5 22.7598 20.5527 22.8536 20.6464C22.9473 20.7402 23 20.8674 23 21C23 21.1326 22.9473 21.2598 22.8536 21.3536C22.7598 21.4473 22.6326 21.5 22.5 21.5Z" fill="white"/>
</g>
<defs>
<filter id="filter0_d_3_8406" x="0" y="0" width="44" height="44" filterUnits="userSpaceOnUse" color-interpolation-filters="sRGB">
<feFlood flood-opacity="0" result="BackgroundImageFix"/>
<feColorMatrix in="SourceAlpha" type="matrix" values="0 0 0 0 0 0 0 0 0 0 0 0 0 0 0 0 0 0 127 0" result="hardAlpha"/>
<feOffset dy="4"/>
<feGaussianBlur stdDeviation="5"/>
<feComposite in2="hardAlpha" operator="out"/>
<feColorMatrix type="matrix" values="0 0 0 0 0 0 0 0 0 0 0 0 0 0 0 0 0 0 0.1 0"/>
<feBlend mode="normal" in2="BackgroundImageFix" result="effect1_dropShadow_3_8406"/>
<feBlend mode="normal" in="SourceGraphic" in2="effect1_dropShadow_3_8406" result="shape"/>
</filter>
</defs>
</svg>
